# xmcd
#
# Track frame offsets: 
#        150
#        22642
#        42719
#        77677
#        99198
#        126908
#        147705
#        184654
#        205598
#        246506
#        265123
#        293893
#        326867
#
# Disc length: 4751 seconds
#
# Revision: 0
# Processed by: cddbd v1.5.2PL0 Copyright (c) Steve Scherf et al.
# Submitted via: ExactAudioCopy v1.0b4
#
DISCID=bd128d0d
DTITLE=Ronnie Earl and The Broadcasters - Father's Day
DYEAR=2015
DGENRE=Blues
TTITLE0=It Takes Time 
TTITLE1=Higher Love
TTITLE2=Right Place Wrong Time
TTITLE3=What Have I Done Wrong
TTITLE4=Giving Up
TTITLE5=Every Night About This Time
TTITLE6=Father's Day
TTITLE7=I Need You So Bad
TTITLE8=I'll Take Care Of You
TTITLE9=Follow Your Heart
TTITLE10=Moanin'
TTITLE11=All Your Love
TTITLE12=Precious Lord
EXTD=
EXTT0=
EXTT1=
EXTT2=
EXTT3=
EXTT4=
EXTT5=
EXTT6=
EXTT7=
EXTT8=
EXTT9=
EXTT10=
EXTT11=
EXTT12=
PLAYORDER=
